<?xml version="1.0" encoding="utf-8"?>
<!-- Generator: Adobe Illustrator 25.2.1, SVG Export Plug-In . SVG Version: 6.00 Build 0)  -->
<svg version="1.1" id="Layer_1" xmlns="http://www.w3.org/2000/svg" xmlns:xlink="http://www.w3.org/1999/xlink" x="0px" y="0px"
	 viewBox="0 0 135 30" style="enable-background:new 0 0 135 30;" xml:space="preserve">
<style type="text/css">
	.path {
		fill: transparent;
		stroke: #6d28d9;
		stroke-width: 1px;
		stroke-miterlimit:10;
		stroke-linecap: round;
		stroke-linejoin: round;
		stroke-dasharray: 2000;
		stroke-dashoffset: 2000;
		animation: dash 2s ease-in forwards,
			bg .5s linear forwards .5s;
		transition: fill .1s ease;
	}
	@keyframes dash {
		0%   {
			stroke-dashoffset: 2000;
		}
		100% {
			stroke-dashoffset: 0;
		}
	}
	@keyframes bg {
		0%   {
			fill: transparent;
		}
		100% {
			fill:#6d28d9;
		}
	}
</style>
<g>
	<path class="st0 path" d="M22.6,14.9c-0.7,1.3-1.8,2.3-3.3,3.1c-1.5,0.8-3.3,1.2-5.5,1.2h-0.8c-1.8,0-3.2,1.5-3.2,3.2v3.1
		c0,1.8-1.5,3.2-3.2,3.2h0c-1.8,0-3.2-1.5-3.2-3.2V5.3C3.4,3.5,4.8,2,6.6,2h7.3c2.1,0,3.9,0.4,5.4,1.1c1.5,0.7,2.6,1.7,3.3,3
		c0.7,1.3,1.1,2.8,1.1,4.4C23.7,12.2,23.3,13.6,22.6,14.9z M16.2,13.1c0.6-0.6,0.9-1.4,0.9-2.5s-0.3-1.9-0.9-2.5
		c-0.6-0.6-1.5-0.9-2.8-0.9h-0.3c-1.8,0-3.2,1.5-3.2,3.2v0.2c0,1.8,1.5,3.2,3.2,3.2h0.3C14.6,14,15.6,13.7,16.2,13.1z"/>
	<path class="st0 path" d="M30.1,27.7c-1.7-0.9-3-2.2-3.9-3.8c-0.9-1.6-1.4-3.6-1.4-5.8c0-2.2,0.5-4.1,1.4-5.8s2.3-2.9,4-3.8
		c1.7-0.9,3.5-1.3,5.6-1.3c2.1,0,4,0.4,5.6,1.3c1.7,0.9,3,2.2,4,3.8c1,1.7,1.4,3.6,1.4,5.8s-0.5,4.1-1.5,5.8c-1,1.7-2.3,2.9-4,3.8
		c-1.7,0.9-3.6,1.3-5.6,1.3S31.8,28.6,30.1,27.7z M38.9,22c0.9-0.9,1.3-2.2,1.3-3.9s-0.4-3-1.3-3.9c-0.8-0.9-1.9-1.4-3.1-1.4
		c-1.3,0-2.3,0.4-3.2,1.3c-0.8,0.9-1.3,2.2-1.3,3.9c0,1.7,0.4,3,1.2,3.9c0.8,0.9,1.9,1.4,3.1,1.4S38,22.9,38.9,22z"/>
	<path class="st0 path" d="M59.6,8.3c0.8-0.5,1.8-0.8,2.8-0.9c0.6-0.1,1,0.4,1,0.9v5c0,0.5-0.4,0.9-0.9,0.9h-0.9c-1.6,0-2.8,0.3-3.6,1
		c-0.8,0.7-1.2,1.9-1.2,3.7v8.9c0,0.5-0.4,0.9-0.9,0.9h-4.6c-0.5,0-0.9-0.4-0.9-0.9V8.4c0-0.5,0.4-0.9,0.9-0.9h4.6
		c0.5,0,0.9,0.4,0.9,0.9v0.1c0,0.8,1,1.2,1.6,0.7C58.7,8.9,59.2,8.6,59.6,8.3z"/>
	<path class="st0 path" d="M79.4,24.5v2.9c0,0.7-0.6,1.3-1.3,1.3h-2c-2.4,0-4.2-0.6-5.5-1.7c-1.3-1.2-2-3-2-5.6v-7.1
		c0-0.7-0.6-1.3-1.3-1.3l0,0c-0.7,0-1.3-0.6-1.3-1.3V8.8c0-0.7,0.6-1.3,1.3-1.3l0,0c0.7,0,1.3-0.6,1.3-1.3V3.6
		c0-0.7,0.6-1.3,1.3-1.3h3.9c0.7,0,1.3,0.6,1.3,1.3v2.6c0,0.7,0.6,1.3,1.3,1.3H78c0.7,0,1.3,0.6,1.3,1.3v2.8c0,0.7-0.6,1.3-1.3,1.3
		h-1.7c-0.7,0-1.3,0.6-1.3,1.3v7.2c0,0.6,0.2,1.1,0.5,1.4c0.3,0.3,0.8,0.4,1.5,0.4h1C78.8,23.2,79.4,23.8,79.4,24.5z"/>
	<path class="st0 path" d="M103.9,8.3v19.5c0,0.5-0.4,0.8-0.8,0.8h-4.8c-0.5,0-0.8-0.4-0.8-0.8v0c0-0.7-0.8-1.1-1.4-0.6
		c-0.4,0.3-0.8,0.6-1.3,0.8c-1.1,0.6-2.4,0.9-3.7,0.9c-1.6,0-3.1-0.4-4.3-1.1c-1.2-0.7-2.2-1.8-2.9-3.1c-0.7-1.4-1-3-1-4.8V8.3
		c0-0.5,0.4-0.8,0.8-0.8h4.8c0.5,0,0.8,0.4,0.8,0.8V19c0,1.4,0.4,2.5,1.1,3.3c0.7,0.8,1.7,1.2,3,1.2c1.3,0,2.3-0.4,3-1.2
		c0.7-0.8,1.1-1.9,1.1-3.3V8.3c0-0.5,0.4-0.8,0.8-0.8h4.8C103.5,7.5,103.9,7.9,103.9,8.3z"/>
	<path class="st0 path" d="M112.3,28.1c-1.4-0.6-2.6-1.5-3.4-2.6c0,0,0,0,0,0c-1.1-1.5,0-3.7,1.9-3.7h1.5c0.8,0,1.5,0.5,2,1.2
		c0.2,0.2,0.4,0.4,0.6,0.6c0.6,0.5,1.4,0.7,2.2,0.7c0.8,0,1.4-0.2,1.9-0.5c0.4-0.3,0.7-0.7,0.7-1.2c0-0.6-0.3-1.1-1-1.3
		c-0.6-0.3-1.7-0.6-3.1-1c-1.5-0.4-2.8-0.7-3.8-1.1c-1-0.4-1.9-1-2.6-1.9c-0.7-0.8-1.1-2-1.1-3.4c0-1.2,0.3-2.3,1-3.3
		c0.7-1,1.7-1.8,3-2.4c1.3-0.6,2.9-0.9,4.7-0.9c2.7,0,4.8,0.7,6.3,2c0.6,0.5,1.1,1.1,1.5,1.7c1,1.5-0.2,3.5-2.1,3.5h-1.2
		c-0.8,0-1.5-0.5-2-1.2c-0.1-0.2-0.3-0.4-0.5-0.6c-0.5-0.4-1.3-0.6-2.1-0.6c-0.8,0-1.3,0.1-1.7,0.4c-0.4,0.3-0.6,0.7-0.6,1.2
		c0,0.6,0.3,1.1,1,1.4c0.6,0.3,1.7,0.6,3,0.9c1.6,0.4,2.9,0.8,3.8,1.2c1,0.4,1.9,1,2.6,1.9c0.7,0.9,1.1,2,1.2,3.5
		c0,1.2-0.3,2.4-1,3.3c-0.7,1-1.7,1.7-3,2.3c-1.3,0.6-2.8,0.8-4.5,0.8C115.4,29,113.7,28.7,112.3,28.1z"/>
</g>
</svg>
