<?xml version="1.0" encoding="utf-8"?>
<!-- Generator: Adobe Illustrator 25.2.1, SVG Export Plug-In . SVG Version: 6.00 Build 0)  -->
<svg version="1.1" id="Layer_1" xmlns="http://www.w3.org/2000/svg" xmlns:xlink="http://www.w3.org/1999/xlink" x="0px" y="0px"
	 viewBox="0 0 16 16" style="enable-background:new 0 0 16 16;" xml:space="preserve">
<style type="text/css">
	.st0{fill:#6d28d9;stroke:#6d28d9;stroke-miterlimit:10;}
	.st1{fill:#FFFFFF;}
</style>
<path class="st0" d="M12.7,15.4H3.3c-1.5,0-2.8-1.2-2.8-2.8V3.3c0-1.5,1.2-2.8,2.8-2.8h9.3c1.5,0,2.8,1.2,2.8,2.8v9.3
	C15.4,14.2,14.2,15.4,12.7,15.4z"/>
<path class="st1" d="M12.1,7.8c-0.3,0.5-0.7,0.9-1.3,1.2c-0.6,0.3-1.3,0.5-2.1,0.5H8.4c-0.7,0-1.2,0.6-1.2,1.2v1.2
	c0,0.7-0.6,1.2-1.2,1.2h0c-0.7,0-1.2-0.6-1.2-1.2V4.1c0-0.7,0.6-1.2,1.2-1.2h2.8c0.8,0,1.5,0.1,2.1,0.4c0.6,0.3,1,0.7,1.3,1.2
	c0.3,0.5,0.4,1.1,0.4,1.7C12.5,6.8,12.4,7.3,12.1,7.8z M9.6,7.1C9.8,6.9,10,6.6,10,6.2S9.8,5.5,9.6,5.2C9.4,5,9,4.9,8.5,4.9H8.4
	c-0.7,0-1.2,0.6-1.2,1.2v0.1c0,0.7,0.6,1.2,1.2,1.2h0.1C9,7.5,9.4,7.3,9.6,7.1z"/>
</svg>
