<?xml version="1.0" encoding="utf-8"?>
<!-- Generator: Adobe Illustrator 25.2.1, SVG Export Plug-In . SVG Version: 6.00 Build 0)  -->
<svg version="1.1" id="Layer_1" xmlns="http://www.w3.org/2000/svg" xmlns:xlink="http://www.w3.org/1999/xlink" x="0px" y="0px"
	 viewBox="0 0 317.1 70.2" style="enable-background:new 0 0 317.1 70.2;" xml:space="preserve">
<style type="text/css">
	.st0{fill:#6d28d9;}
</style>
<g>
	<g>
		<path class="st0" d="M2.3,15.2c5.3,12.9,17.4,20.3,30,24.8c6.8,2.4,13.8,4.1,20.9,5.3c8.6,1.5,17.2,2.5,26,2.5
			c9.5,0,18.9-1,28.2-2.6c4.7-0.8,9.4-1.8,14-3c3.7-0.9,7.5-1.9,11-3.4c6.2-2.6,12.7-6.5,15.2-13.1c2.7-6.9-1.1-14-7-17.7
			c-12.8-8-31.4-2.8-39.8,9.2c-4.2,6-5.5,13.9-4.1,21c1.5,7.6,6.5,13.8,13.3,17.3c7.3,3.8,15.7,4.8,23.8,5.2
			c9.3,0.4,18.8-0.5,27.9-2.5c17.9-4,34-13.3,50.5-21c15.9-7.5,34-14,51.9-11c13.6,2.3,27.2,11.4,31.7,25c1.1,3.2,1.5,6.5,1.4,9.9
			c-0.1,3.2,4.9,3.2,5,0c0.5-14.2-8.7-26.7-20.5-33.7c-14.3-8.5-31.6-8-47.2-3.9c-16.9,4.5-32.1,13.3-47.8,20.6
			c-7.9,3.6-16,6.9-24.4,8.9c-8.6,2.1-17.4,3.1-26.2,2.9c-7.6-0.2-15.9-0.8-22.9-4.2c-6.2-3.1-10.5-8.3-11.7-15.2
			c-1.1-6.3,0.7-13.2,4.9-18.1c4.5-5.2,11.1-8.3,17.9-8.8c6.1-0.5,13.4,1,17.3,6.1c1.7,2.2,2.3,5.1,1.6,7.8
			c-0.7,2.6-2.6,4.8-4.7,6.5c-5.5,4.4-12.5,6.2-19.2,7.9c-8.7,2.1-17.5,3.8-26.4,4.6c-16.2,1.5-32.4,0.2-48.3-3.7
			c-12-2.9-24.9-7.5-33.1-17.4c-1.8-2.2-3.3-4.6-4.4-7.2c-0.5-1.2-1.7-2.1-3.1-1.7C2.9,12.5,1.8,14,2.3,15.2L2.3,15.2z"/>
	</g>
</g>
<g>
	<g>
		<path class="st0" d="M301.5,63.8c-4.5-4.5-9.1-9.1-13.6-13.6c-0.9-0.9-2.6-1-3.5,0c-0.9,1-1,2.5,0,3.5c4.5,4.5,9.1,9.1,13.6,13.6
			c0.9,0.9,2.6,1,3.5,0C302.4,66.3,302.5,64.8,301.5,63.8L301.5,63.8z"/>
	</g>
</g>
<g>
	<g>
		<path class="st0" d="M301.4,67.3c4.5-4.5,9-9,13.5-13.5c0.9-0.9,1-2.6,0-3.5c-1-0.9-2.5-1-3.5,0c-4.5,4.5-9,9-13.5,13.5
			c-0.9,0.9-1,2.6,0,3.5C298.9,68.2,300.4,68.2,301.4,67.3L301.4,67.3z"/>
	</g>
</g>
</svg>
