<?xml version="1.0" encoding="utf-8"?>
<!-- Generator: Adobe Illustrator 25.2.1, SVG Export Plug-In . SVG Version: 6.00 Build 0)  -->
<svg version="1.1" id="Layer_1" xmlns="http://www.w3.org/2000/svg" xmlns:xlink="http://www.w3.org/1999/xlink" x="0px" y="0px"
	 viewBox="0 0 76.2 65.4" style="enable-background:new 0 0 76.2 65.4;" xml:space="preserve" fill="#e90b35">
<g>
	<path d="M2,7.8c10.9-6.4,26.6-7.7,34.7,3.9c3.8,5.4,4.3,13.1,0.6,18.7c-2.9,4.3-8.9,5.4-11.5,0.3c-1.7-3.7-1.5-8,0.6-11.5
		C34,5.8,51.2,13.8,58,23.2c7.9,10.9,9.6,25.3,5.4,37.9c-0.6,1.8,2.2,2.9,2.8,1.1c4.5-13.7,2.7-29.2-5.9-40.9
		c-7-9.6-20.4-16.4-31.4-9.1c-4.8,3.2-7.5,8.7-7.1,14.4c0.3,4.6,3,10,8,10.9c5.7,1,10.2-4.6,12-9.3c1.9-5.4,1.4-11.3-1.3-16.3
		C32.4-2.7,13.5-2.5,0.8,5C-0.9,6,0.3,8.7,2,7.8z"/>
	<path d="M73.5,50.2c-2.8,4.4-5.9,8.7-9.2,12.8l2.4-0.1c-3.7-5-7.7-9.7-12.2-13.9c-1.4-1.3-3.7,0.6-2.3,1.9
		c4.5,4.3,8.6,8.9,12.2,13.9c0.5,0.6,1.5,0.7,2.1,0.2c0.1-0.1,0.2-0.2,0.2-0.3c3.3-4.1,6.4-8.3,9.2-12.7
		C76.9,50.4,74.5,48.6,73.5,50.2L73.5,50.2z"/>
</g>
</svg>
